<svg width="24" height="24" viewBox="0 0 1000 1000" xmlns="http://www.w3.org/2000/svg"><path d=" M 354 284C 427 284 491 305 491 390 491 433 471 454 432 473 485 488 510 534 510 588 510 675 437 712 360 712 290 712 221 712 152 712 152 570 152 427 152 284 219 284 286 284 354 284ZM 780 299C 780 313 780 327 780 342 722 342 664 342 606 342 606 327 606 313 606 299 664 299 722 299 780 299ZM 246 450C 278 450 310 450 342 450 375 450 399 435 399 399 399 359 369 350 335 350 305 350 276 350 246 350 246 383 246 417 246 450ZM 848 555C 848 560 848 566 848 571 773 571 698 571 624 571 624 620 650 650 700 650 726 650 759 636 767 609 792 609 818 609 843 609 819 680 771 714 697 714 600 714 539 647 539 551 539 457 603 386 697 386 794 386 848 463 848 555ZM 624 517C 670 517 716 517 762 517 759 476 737 451 694 451 654 451 626 476 624 517ZM 246 639C 280 639 313 639 347 639 385 639 416 626 416 583 416 539 390 521 349 521 314 521 280 521 246 521 246 561 246 600 246 639Z" fill="#FFF"/></svg>