<svg width="70" height="65" viewBox="0 0 70 65" fill="none" xmlns="http://www.w3.org/2000/svg">
<g filter="url(#filter0_d_179_20)">
<path d="M18.45 51.5C17.85 51.5 17.3833 51.3333 17.05 51C16.75 50.6333 16.6 50.1333 16.6 49.5V19.1H5.15C4.55 19.1 4.06667 18.9833 3.7 18.75C3.36667 18.4833 3.2 18.1 3.2 17.6C3.2 16.5333 3.85 16 5.15 16H31.85C33.15 16 33.8 16.5333 33.8 17.6C33.8 18.0667 33.6333 18.4333 33.3 18.7C32.9667 18.9667 32.4833 19.1 31.85 19.1H20.4V49.5C20.4 50.1333 20.2167 50.6333 19.85 51C19.5167 51.3333 19.05 51.5 18.45 51.5ZM38.8266 51.5C38.2599 51.5 37.8099 51.3333 37.4766 51C37.1432 50.6333 36.9766 50.1333 36.9766 49.5V29.95C36.9766 25.4167 38.2432 21.8833 40.7766 19.35C43.3432 16.7833 46.8932 15.5 51.4266 15.5C55.9266 15.5 59.4599 16.7833 62.0266 19.35C64.5932 21.9167 65.8766 25.45 65.8766 29.95V49.5C65.8766 50.1333 65.7099 50.6333 65.3766 51C65.0432 51.3333 64.5766 51.5 63.9766 51.5C63.4099 51.5 62.9432 51.3333 62.5766 51C62.2432 50.6333 62.0766 50.1333 62.0766 49.5V38.25H40.7266V49.5C40.7266 50.1333 40.5599 50.6333 40.2266 51C39.8932 51.3333 39.4266 51.5 38.8266 51.5ZM62.0766 35.15V29.8C62.0766 26.2333 61.1599 23.5 59.3266 21.6C57.4932 19.6667 54.8599 18.7 51.4266 18.7C47.9599 18.7 45.3099 19.65 43.4766 21.55C41.6432 23.45 40.7266 26.2 40.7266 29.8V35.15H62.0766Z" fill="#F97316"/>
</g>
<defs>
<filter id="filter0_d_179_20" x="0.199997" y="15.5" width="65.6766" height="38" filterUnits="userSpaceOnUse" color-interpolation-filters="sRGB">
<feFlood flood-opacity="0" result="BackgroundImageFix"/>
<feColorMatrix in="SourceAlpha" type="matrix" values="0 0 0 0 0 0 0 0 0 0 0 0 0 0 0 0 0 0 127 0" result="hardAlpha"/>
<feOffset dx="-3" dy="2"/>
<feComposite in2="hardAlpha" operator="out"/>
<feColorMatrix type="matrix" values="0 0 0 0 0.75902 0 0 0 0 0.465636 0 0 0 0 0.0255613 0 0 0 0.25 0"/>
<feBlend mode="normal" in2="BackgroundImageFix" result="effect1_dropShadow_179_20"/>
<feBlend mode="normal" in="SourceGraphic" in2="effect1_dropShadow_179_20" result="shape"/>
</filter>
</defs>
</svg>
